<svg width="96" height="96" viewBox="0 0 96 96" fill="none" xmlns="http://www.w3.org/2000/svg">
<circle cx="48" cy="48" r="48" fill="#FCB72B"/>
<path fill-rule="evenodd" clip-rule="evenodd" d="M53.7995 24H33.0106C30.8037 24.0028 29.0155 25.791 29.0127 27.9979V67.9765C29.0155 70.1834 30.8037 71.9716 33.0106 71.9744H52.9999V70.544C52.9961 66.9421 54.0623 63.4194 56.0639 60.4246C56.2758 60.1071 56.2332 59.6848 55.9639 59.4155L50.3669 53.8185C49.8496 53.3006 49.5753 52.5884 49.6115 51.8573C49.6479 51.1259 49.9915 50.4447 50.5572 49.9805C51.6468 49.1476 53.1878 49.2665 54.1369 50.2562L62.0295 58.149L63.1601 57.0184L57.7973 51.6541V27.9979C57.7945 25.791 56.0063 24.0028 53.7995 24ZM56.1982 50.0549L55.2675 49.1242C53.7335 47.557 51.2664 47.3937 49.5393 48.7456C48.6258 49.4964 48.0715 50.5986 48.0138 51.7802C47.9562 52.9616 48.4 54.1123 49.2363 54.9491L54.3776 60.0906C52.4602 63.1803 51.4319 66.7392 51.4064 70.3753H33.0106C31.6861 70.3753 30.6118 69.301 30.6118 67.9765V65.5778H50.6012V63.9787H30.6118V30.3966H56.1982V50.0549ZM30.6118 28.7974H56.1982V27.9979C56.1982 26.6734 55.124 25.5991 53.7995 25.5991H33.0106C31.6861 25.5991 30.6118 26.6734 30.6118 27.9979V28.7974ZM60.1549 42.6005L59.0767 43.7791L63.9802 48.2743C65.1346 49.3363 65.7927 50.8327 65.7931 52.4009V71.9744H67.3922V52.4009C67.3902 50.3839 66.5443 48.4606 65.0591 47.0955L60.1549 42.6005ZM33.8101 38.3923H37.0084C37.8918 38.3923 38.6076 37.6765 38.6076 36.7932V33.5949C38.6076 32.7116 37.8918 31.9957 37.0084 31.9957H33.8101C32.9268 31.9957 32.211 32.7116 32.211 33.5949V36.7932C32.211 37.6765 32.9268 38.3923 33.8101 38.3923ZM33.8101 33.5949H37.0084V36.7932H33.8101V33.5949ZM45.0042 38.3923H41.8059C40.9225 38.3923 40.2067 37.6765 40.2067 36.7932V33.5949C40.2067 32.7116 40.9225 31.9957 41.8059 31.9957H45.0042C45.8875 31.9957 46.6033 32.7116 46.6033 33.5949V36.7932C46.6033 37.6765 45.8875 38.3923 45.0042 38.3923ZM45.0042 33.5949H41.8059V36.7932H45.0042V33.5949ZM49.8016 38.3923H52.9999C53.8832 38.3923 54.599 37.6765 54.599 36.7932V33.5949C54.599 32.7116 53.8832 31.9957 52.9999 31.9957H49.8016C48.9183 31.9957 48.2025 32.7116 48.2025 33.5949V36.7932C48.2025 37.6765 48.9183 38.3923 49.8016 38.3923ZM49.8016 33.5949H52.9999V36.7932H49.8016V33.5949ZM37.0084 46.3881H33.8101C32.9268 46.3881 32.211 45.6722 32.211 44.7889V41.5906C32.211 40.7073 32.9268 39.9915 33.8101 39.9915H37.0084C37.8918 39.9915 38.6076 40.7073 38.6076 41.5906V44.7889C38.6076 45.6722 37.8918 46.3881 37.0084 46.3881ZM37.0084 41.5906H33.8101V44.7889H37.0084V41.5906ZM33.8101 54.3838H37.0084C37.8918 54.3838 38.6076 53.668 38.6076 52.7846V49.5864C38.6076 48.703 37.8918 47.9872 37.0084 47.9872H33.8101C32.9268 47.9872 32.211 48.703 32.211 49.5864V52.7846C32.211 53.668 32.9268 54.3838 33.8101 54.3838ZM33.8101 49.5864H37.0084V52.7846H33.8101V49.5864ZM45.0042 46.3881H41.8059C40.9225 46.3881 40.2067 45.6722 40.2067 44.7889V41.5906C40.2067 40.7073 40.9225 39.9915 41.8059 39.9915H45.0042C45.8875 39.9915 46.6033 40.7073 46.6033 41.5906V44.7889C46.6033 45.6722 45.8875 46.3881 45.0042 46.3881ZM45.0042 41.5906H41.8059V44.7889H45.0042V41.5906ZM49.8016 46.3881H52.9999C53.8832 46.3881 54.599 45.6722 54.599 44.7889V41.5906C54.599 40.7073 53.8832 39.9915 52.9999 39.9915H49.8016C48.9183 39.9915 48.2025 40.7073 48.2025 41.5906V44.7889C48.2025 45.6722 48.9183 46.3881 49.8016 46.3881ZM49.8016 41.5906H52.9999V44.7889H49.8016V41.5906ZM45.0042 54.3838H41.8059C40.9225 54.3838 40.2067 53.668 40.2067 52.7846V49.5864C40.2067 48.703 40.9225 47.9872 41.8059 47.9872H45.0042C45.8875 47.9872 46.6033 48.703 46.6033 49.5864V52.7846C46.6033 53.668 45.8875 54.3838 45.0042 54.3838ZM45.0042 49.5864H41.8059V52.7846H45.0042V49.5864ZM33.8101 62.3795H37.0084C37.8918 62.3795 38.6076 61.6637 38.6076 60.7804V57.5821C38.6076 56.6988 37.8918 55.9829 37.0084 55.9829H33.8101C32.9268 55.9829 32.211 56.6988 32.211 57.5821V60.7804C32.211 61.6637 32.9268 62.3795 33.8101 62.3795ZM33.8101 57.5821H37.0084V60.7804H33.8101V57.5821ZM45.0042 62.3795H41.8059C40.9225 62.3795 40.2067 61.6637 40.2067 60.7804V57.5821C40.2067 56.6988 40.9225 55.9829 41.8059 55.9829H45.0042C45.8875 55.9829 46.6033 56.6988 46.6033 57.5821V60.7804C46.6033 61.6637 45.8875 62.3795 45.0042 62.3795ZM45.0042 57.5821H41.8059V60.7804H45.0042V57.5821ZM44.2046 67.177H42.6054V68.7761H44.2046V67.177Z" fill="#495567"/>
</svg>
