<svg width="127" height="36" viewBox="0 0 127 36" fill="none" xmlns="http://www.w3.org/2000/svg">
<path d="M44.5 29H39.74L39.06 32H36.3L39.64 18H44.6L47.94 32H45.18L44.5 29ZM40.3 26.48H43.92L42.3 19.32H41.94L40.3 26.48ZM50.9132 36H48.3932V22.08H50.9132V23.52H51.2732C51.5399 22.9733 51.9266 22.5533 52.4332 22.26C52.9399 21.9533 53.5866 21.8 54.3732 21.8C54.9599 21.8 55.5132 21.9133 56.0332 22.14C56.5666 22.3667 57.0266 22.7 57.4132 23.14C57.8132 23.5667 58.1266 24.0933 58.3532 24.72C58.5932 25.3467 58.7132 26.06 58.7132 26.86V27.22C58.7132 28.0333 58.5999 28.7533 58.3732 29.38C58.1466 30.0067 57.8399 30.54 57.4532 30.98C57.0666 31.4067 56.6066 31.7333 56.0732 31.96C55.5532 32.1733 54.9866 32.28 54.3732 32.28C53.9199 32.28 53.5266 32.2333 53.1932 32.14C52.8599 32.0467 52.5666 31.92 52.3132 31.76C52.0732 31.6 51.8666 31.42 51.6932 31.22C51.5332 31.0067 51.3932 30.7867 51.2732 30.56H50.9132V36ZM53.5532 29.88C54.3399 29.88 54.9732 29.64 55.4532 29.16C55.9466 28.6667 56.1932 28 56.1932 27.16V26.92C56.1932 26.08 55.9466 25.42 55.4532 24.94C54.9732 24.4467 54.3399 24.2 53.5532 24.2C52.7666 24.2 52.1266 24.4533 51.6332 24.96C51.1532 25.4533 50.9132 26.1067 50.9132 26.92V27.16C50.9132 27.9733 51.1532 28.6333 51.6332 29.14C52.1266 29.6333 52.7666 29.88 53.5532 29.88ZM62.2665 36H59.7465V22.08H62.2665V23.52H62.6265C62.8931 22.9733 63.2798 22.5533 63.7865 22.26C64.2931 21.9533 64.9398 21.8 65.7265 21.8C66.3131 21.8 66.8665 21.9133 67.3865 22.14C67.9198 22.3667 68.3798 22.7 68.7665 23.14C69.1665 23.5667 69.4798 24.0933 69.7065 24.72C69.9465 25.3467 70.0665 26.06 70.0665 26.86V27.22C70.0665 28.0333 69.9531 28.7533 69.7265 29.38C69.4998 30.0067 69.1931 30.54 68.8065 30.98C68.4198 31.4067 67.9598 31.7333 67.4265 31.96C66.9065 32.1733 66.3398 32.28 65.7265 32.28C65.2731 32.28 64.8798 32.2333 64.5465 32.14C64.2131 32.0467 63.9198 31.92 63.6665 31.76C63.4265 31.6 63.2198 31.42 63.0465 31.22C62.8865 31.0067 62.7465 30.7867 62.6265 30.56H62.2665V36ZM64.9065 29.88C65.6931 29.88 66.3265 29.64 66.8065 29.16C67.2998 28.6667 67.5465 28 67.5465 27.16V26.92C67.5465 26.08 67.2998 25.42 66.8065 24.94C66.3265 24.4467 65.6931 24.2 64.9065 24.2C64.1198 24.2 63.4798 24.4533 62.9865 24.96C62.5065 25.4533 62.2665 26.1067 62.2665 26.92V27.16C62.2665 27.9733 62.5065 28.6333 62.9865 29.14C63.4798 29.6333 64.1198 29.88 64.9065 29.88ZM78.5797 22.28C78.5797 21.72 78.3597 21.2333 77.9197 20.82C77.493 20.4067 76.8864 20.2 76.0997 20.2C75.433 20.2 74.9064 20.34 74.5197 20.62C74.133 20.8867 73.9397 21.2533 73.9397 21.72C73.9397 21.96 73.9864 22.18 74.0797 22.38C74.173 22.5667 74.333 22.74 74.5597 22.9C74.7997 23.0467 75.1064 23.18 75.4797 23.3C75.8664 23.42 76.353 23.5333 76.9397 23.64C78.4064 23.9067 79.5264 24.3533 80.2997 24.98C81.073 25.6067 81.4597 26.5333 81.4597 27.76V28C81.4597 28.6533 81.3397 29.2467 81.0997 29.78C80.873 30.3 80.5397 30.7467 80.0997 31.12C79.6597 31.4933 79.1264 31.78 78.4997 31.98C77.873 32.18 77.1664 32.28 76.3797 32.28C75.4597 32.28 74.6464 32.1533 73.9397 31.9C73.2464 31.6333 72.6664 31.2733 72.1997 30.82C71.733 30.3533 71.3797 29.8133 71.1397 29.2C70.8997 28.5733 70.7797 27.8933 70.7797 27.16V26.56H73.4197V27.04C73.4197 27.88 73.6597 28.5533 74.1397 29.06C74.633 29.5533 75.393 29.8 76.4197 29.8C77.2197 29.8 77.813 29.6267 78.1997 29.28C78.5864 28.9333 78.7797 28.52 78.7797 28.04C78.7797 27.8133 78.7397 27.6 78.6597 27.4C78.5797 27.1867 78.4397 27 78.2397 26.84C78.0397 26.6667 77.7664 26.5133 77.4197 26.38C77.073 26.2467 76.633 26.1333 76.0997 26.04C75.393 25.92 74.7464 25.7667 74.1597 25.58C73.573 25.38 73.0597 25.12 72.6197 24.8C72.193 24.48 71.8597 24.08 71.6197 23.6C71.3797 23.12 71.2597 22.5333 71.2597 21.84V21.72C71.2597 21.1467 71.373 20.62 71.5997 20.14C71.8397 19.6467 72.1664 19.22 72.5797 18.86C73.0064 18.5 73.513 18.22 74.0997 18.02C74.6997 17.82 75.3664 17.72 76.0997 17.72C76.9264 17.72 77.6597 17.84 78.2997 18.08C78.9397 18.3067 79.473 18.62 79.8997 19.02C80.3397 19.42 80.6664 19.88 80.8797 20.4C81.1064 20.92 81.2197 21.4667 81.2197 22.04V22.76H78.5797V22.28ZM82.6929 22.08H85.6329V18H88.1529V22.08H91.7329V24.48H88.1529V29C88.1529 29.4 88.3329 29.6 88.6929 29.6H91.3729V32H87.1729C86.7196 32 86.3463 31.8533 86.0529 31.56C85.7729 31.2667 85.6329 30.8933 85.6329 30.44V24.48H82.6929V22.08ZM104.046 27.16C104.046 27.9867 103.906 28.72 103.626 29.36C103.346 29.9867 102.966 30.52 102.486 30.96C102.006 31.3867 101.453 31.7133 100.826 31.94C100.213 32.1667 99.5662 32.28 98.8862 32.28C98.2062 32.28 97.5528 32.1667 96.9262 31.94C96.3128 31.7133 95.7662 31.3867 95.2862 30.96C94.8062 30.52 94.4262 29.9867 94.1462 29.36C93.8662 28.72 93.7262 27.9867 93.7262 27.16V26.92C93.7262 26.1067 93.8662 25.3867 94.1462 24.76C94.4262 24.12 94.8062 23.58 95.2862 23.14C95.7662 22.7 96.3128 22.3667 96.9262 22.14C97.5528 21.9133 98.2062 21.8 98.8862 21.8C99.5662 21.8 100.213 21.9133 100.826 22.14C101.453 22.3667 102.006 22.7 102.486 23.14C102.966 23.58 103.346 24.12 103.626 24.76C103.906 25.3867 104.046 26.1067 104.046 26.92V27.16ZM98.8862 29.88C99.2462 29.88 99.5862 29.82 99.9062 29.7C100.226 29.58 100.506 29.4067 100.746 29.18C100.986 28.9533 101.173 28.68 101.306 28.36C101.453 28.0267 101.526 27.6533 101.526 27.24V26.84C101.526 26.4267 101.453 26.06 101.306 25.74C101.173 25.4067 100.986 25.1267 100.746 24.9C100.506 24.6733 100.226 24.5 99.9062 24.38C99.5862 24.26 99.2462 24.2 98.8862 24.2C98.5262 24.2 98.1862 24.26 97.8662 24.38C97.5462 24.5 97.2662 24.6733 97.0262 24.9C96.7862 25.1267 96.5928 25.4067 96.4462 25.74C96.3128 26.06 96.2462 26.4267 96.2462 26.84V27.24C96.2462 27.6533 96.3128 28.0267 96.4462 28.36C96.5928 28.68 96.7862 28.9533 97.0262 29.18C97.2662 29.4067 97.5462 29.58 97.8662 29.7C98.1862 29.82 98.5262 29.88 98.8862 29.88ZM105.199 22.08H109.399V23.52H109.759C109.946 22.9733 110.259 22.5533 110.699 22.26C111.153 21.9533 111.693 21.8 112.319 21.8C113.306 21.8 114.099 22.1133 114.699 22.74C115.299 23.3533 115.599 24.2933 115.599 25.56V26L112.999 26.24V25.96C112.999 25.4133 112.859 24.98 112.579 24.66C112.299 24.3267 111.879 24.16 111.319 24.16C110.759 24.16 110.319 24.3533 109.999 24.74C109.679 25.1267 109.519 25.68 109.519 26.4V29.6H111.799V32H104.959V29.6H106.999V24.48H105.199V22.08ZM119.253 27.86C119.266 28.1533 119.333 28.4267 119.453 28.68C119.586 28.92 119.759 29.1333 119.973 29.32C120.199 29.4933 120.453 29.6333 120.733 29.74C121.026 29.8333 121.333 29.88 121.653 29.88C122.279 29.88 122.759 29.7733 123.093 29.56C123.426 29.3333 123.666 29.0667 123.813 28.76L125.973 29.96C125.853 30.2133 125.686 30.48 125.473 30.76C125.259 31.0267 124.979 31.2733 124.633 31.5C124.299 31.7267 123.886 31.9133 123.393 32.06C122.913 32.2067 122.346 32.28 121.693 32.28C120.946 32.28 120.266 32.16 119.653 31.92C119.039 31.68 118.506 31.3333 118.053 30.88C117.613 30.4267 117.266 29.8733 117.013 29.22C116.773 28.5667 116.653 27.8267 116.653 27V26.88C116.653 26.12 116.779 25.4267 117.033 24.8C117.299 24.1733 117.659 23.64 118.113 23.2C118.566 22.76 119.093 22.42 119.693 22.18C120.306 21.9267 120.959 21.8 121.653 21.8C122.506 21.8 123.239 21.9533 123.853 22.26C124.466 22.5533 124.973 22.9333 125.373 23.4C125.773 23.8533 126.066 24.36 126.253 24.92C126.439 25.4667 126.533 26 126.533 26.52V27.86H119.253ZM121.633 24.08C120.993 24.08 120.473 24.2467 120.073 24.58C119.673 24.9 119.413 25.2733 119.293 25.7H123.973C123.893 25.2333 123.639 24.8467 123.213 24.54C122.799 24.2333 122.273 24.08 121.633 24.08Z" fill="#495567"/>
<path d="M40.25 6.5H37.87L37.53 8H36.15L37.82 1H40.3L41.97 8H40.59L40.25 6.5ZM38.15 5.24H39.96L39.15 1.66H38.97L38.15 5.24ZM42.1066 3.04H43.4666L44.6366 7.4H44.8166L45.9866 3.04H47.3466L45.9266 8H43.5266L42.1066 3.04ZM51.3432 7.28C51.2099 7.59333 51.0232 7.81667 50.7832 7.95C50.5432 8.07667 50.2632 8.14 49.9432 8.14C49.6432 8.14 49.3599 8.08333 49.0932 7.97C48.8332 7.85667 48.6032 7.69 48.4032 7.47C48.2032 7.25 48.0432 6.98333 47.9232 6.67C47.8099 6.35667 47.7532 6 47.7532 5.6V5.44C47.7532 5.04667 47.8099 4.69333 47.9232 4.38C48.0366 4.06667 48.1899 3.8 48.3832 3.58C48.5766 3.36 48.7999 3.19333 49.0532 3.08C49.3132 2.96 49.5899 2.9 49.8832 2.9C50.2366 2.9 50.5199 2.96 50.7332 3.08C50.9532 3.2 51.1266 3.38667 51.2532 3.64H51.4332V3.04H52.6932V6.5C52.6932 6.7 52.7832 6.8 52.9632 6.8H53.1532V8H52.2932C52.0666 8 51.8799 7.93333 51.7332 7.8C51.5932 7.66667 51.5232 7.49333 51.5232 7.28H51.3432ZM50.2232 6.94C50.5899 6.94 50.8832 6.82 51.1032 6.58C51.3232 6.33333 51.4332 6 51.4332 5.58V5.46C51.4332 5.04 51.3232 4.71 51.1032 4.47C50.8832 4.22333 50.5899 4.1 50.2232 4.1C49.8566 4.1 49.5632 4.22333 49.3432 4.47C49.1232 4.71 49.0132 5.04 49.0132 5.46V5.58C49.0132 6 49.1232 6.33333 49.3432 6.58C49.5632 6.82 49.8566 6.94 50.2232 6.94ZM53.8999 6.8H55.5799V4.24H54.0199V3.04H56.8399V6.8H58.2799V8H53.8999V6.8ZM57.1499 1.57C57.1499 1.70333 57.1232 1.83 57.0699 1.95C57.0232 2.06333 56.9565 2.16333 56.8699 2.25C56.7832 2.33 56.6799 2.39667 56.5599 2.45C56.4465 2.49667 56.3265 2.52 56.1999 2.52C56.0665 2.52 55.9432 2.49667 55.8299 2.45C55.7165 2.39667 55.6165 2.33 55.5299 2.25C55.4432 2.16333 55.3732 2.06333 55.3199 1.95C55.2732 1.83 55.2499 1.70333 55.2499 1.57C55.2499 1.43667 55.2732 1.31333 55.3199 1.2C55.3732 1.08 55.4432 0.98 55.5299 0.9C55.6165 0.813333 55.7165 0.746666 55.8299 0.7C55.9432 0.646666 56.0665 0.62 56.1999 0.62C56.3265 0.62 56.4465 0.646666 56.5599 0.7C56.6799 0.746666 56.7832 0.813333 56.8699 0.9C56.9565 0.98 57.0232 1.08 57.0699 1.2C57.1232 1.31333 57.1499 1.43667 57.1499 1.57ZM59.4565 6.8H61.1965V2.2H59.5165V1H62.4565V6.8H64.0765V8H59.4565V6.8ZM68.3731 7.28C68.2398 7.59333 68.0531 7.81667 67.8131 7.95C67.5731 8.07667 67.2931 8.14 66.9731 8.14C66.6731 8.14 66.3898 8.08333 66.1231 7.97C65.8631 7.85667 65.6331 7.69 65.4331 7.47C65.2331 7.25 65.0731 6.98333 64.9531 6.67C64.8398 6.35667 64.7831 6 64.7831 5.6V5.44C64.7831 5.04667 64.8398 4.69333 64.9531 4.38C65.0664 4.06667 65.2198 3.8 65.4131 3.58C65.6064 3.36 65.8298 3.19333 66.0831 3.08C66.3431 2.96 66.6198 2.9 66.9131 2.9C67.2664 2.9 67.5498 2.96 67.7631 3.08C67.9831 3.2 68.1564 3.38667 68.2831 3.64H68.4631V3.04H69.7231V6.5C69.7231 6.7 69.8131 6.8 69.9931 6.8H70.1831V8H69.3231C69.0964 8 68.9098 7.93333 68.7631 7.8C68.6231 7.66667 68.5531 7.49333 68.5531 7.28H68.3731ZM67.2531 6.94C67.6198 6.94 67.9131 6.82 68.1331 6.58C68.3531 6.33333 68.4631 6 68.4631 5.58V5.46C68.4631 5.04 68.3531 4.71 68.1331 4.47C67.9131 4.22333 67.6198 4.1 67.2531 4.1C66.8864 4.1 66.5931 4.22333 66.3731 4.47C66.1531 4.71 66.0431 5.04 66.0431 5.46V5.58C66.0431 6 66.1531 6.33333 66.3731 6.58C66.5931 6.82 66.8864 6.94 67.2531 6.94ZM71.8897 8H70.6297V1H71.8897V3.76H72.0697C72.203 3.48667 72.3964 3.27667 72.6497 3.13C72.903 2.97667 73.2264 2.9 73.6197 2.9C73.913 2.9 74.1897 2.95667 74.4497 3.07C74.7164 3.18333 74.9464 3.35 75.1397 3.57C75.3397 3.78333 75.4964 4.04667 75.6097 4.36C75.7297 4.67333 75.7897 5.03 75.7897 5.43V5.61C75.7897 6.01667 75.733 6.37667 75.6197 6.69C75.5064 7.00333 75.353 7.27 75.1597 7.49C74.9664 7.70333 74.7364 7.86667 74.4697 7.98C74.2097 8.08667 73.9264 8.14 73.6197 8.14C73.393 8.14 73.1964 8.11667 73.0297 8.07C72.863 8.02333 72.7164 7.96 72.5897 7.88C72.4697 7.8 72.3664 7.71 72.2797 7.61C72.1997 7.50333 72.1297 7.39333 72.0697 7.28H71.8897V8ZM73.2097 6.94C73.603 6.94 73.9197 6.82 74.1597 6.58C74.4064 6.33333 74.5297 6 74.5297 5.58V5.46C74.5297 5.04 74.4064 4.71 74.1597 4.47C73.9197 4.22333 73.603 4.1 73.2097 4.1C72.8164 4.1 72.4964 4.22667 72.2497 4.48C72.0097 4.72667 71.8897 5.05333 71.8897 5.46V5.58C71.8897 5.98667 72.0097 6.31667 72.2497 6.57C72.4964 6.81667 72.8164 6.94 73.2097 6.94ZM76.4863 6.8H78.2263V2.2H76.5463V1H79.4863V6.8H81.1063V8H76.4863V6.8ZM83.3029 5.93C83.3096 6.07667 83.3429 6.21333 83.4029 6.34C83.4696 6.46 83.5563 6.56667 83.6629 6.66C83.7763 6.74667 83.9029 6.81667 84.0429 6.87C84.1896 6.91667 84.3429 6.94 84.5029 6.94C84.8163 6.94 85.0563 6.88667 85.2229 6.78C85.3896 6.66667 85.5096 6.53333 85.5829 6.38L86.6629 6.98C86.6029 7.10667 86.5196 7.24 86.4129 7.38C86.3063 7.51333 86.1663 7.63667 85.9929 7.75C85.8263 7.86333 85.6196 7.95667 85.3729 8.03C85.1329 8.10333 84.8496 8.14 84.5229 8.14C84.1496 8.14 83.8096 8.08 83.5029 7.96C83.1963 7.84 82.9296 7.66667 82.7029 7.44C82.4829 7.21333 82.3096 6.93667 82.1829 6.61C82.0629 6.28333 82.0029 5.91333 82.0029 5.5V5.44C82.0029 5.06 82.0663 4.71333 82.1929 4.4C82.3263 4.08667 82.5063 3.82 82.7329 3.6C82.9596 3.38 83.2229 3.21 83.5229 3.09C83.8296 2.96333 84.1563 2.9 84.5029 2.9C84.9296 2.9 85.2963 2.97667 85.6029 3.13C85.9096 3.27667 86.1629 3.46667 86.3629 3.7C86.5629 3.92667 86.7096 4.18 86.8029 4.46C86.8963 4.73333 86.9429 5 86.9429 5.26V5.93H83.3029ZM84.4929 4.04C84.1729 4.04 83.9129 4.12333 83.7129 4.29C83.5129 4.45 83.3829 4.63667 83.3229 4.85H85.6629C85.6229 4.61667 85.4963 4.42333 85.2829 4.27C85.0763 4.11667 84.8129 4.04 84.4929 4.04ZM98.4062 5.58C98.4062 5.99333 98.3362 6.36 98.1962 6.68C98.0562 6.99333 97.8662 7.26 97.6262 7.48C97.3862 7.69333 97.1095 7.85667 96.7962 7.97C96.4895 8.08333 96.1662 8.14 95.8262 8.14C95.4862 8.14 95.1595 8.08333 94.8462 7.97C94.5395 7.85667 94.2662 7.69333 94.0262 7.48C93.7862 7.26 93.5962 6.99333 93.4562 6.68C93.3162 6.36 93.2462 5.99333 93.2462 5.58V5.46C93.2462 5.05333 93.3162 4.69333 93.4562 4.38C93.5962 4.06 93.7862 3.79 94.0262 3.57C94.2662 3.35 94.5395 3.18333 94.8462 3.07C95.1595 2.95667 95.4862 2.9 95.8262 2.9C96.1662 2.9 96.4895 2.95667 96.7962 3.07C97.1095 3.18333 97.3862 3.35 97.6262 3.57C97.8662 3.79 98.0562 4.06 98.1962 4.38C98.3362 4.69333 98.4062 5.05333 98.4062 5.46V5.58ZM95.8262 6.94C96.0062 6.94 96.1762 6.91 96.3362 6.85C96.4962 6.79 96.6362 6.70333 96.7562 6.59C96.8762 6.47667 96.9695 6.34 97.0362 6.18C97.1095 6.01333 97.1462 5.82667 97.1462 5.62V5.42C97.1462 5.21333 97.1095 5.03 97.0362 4.87C96.9695 4.70333 96.8762 4.56333 96.7562 4.45C96.6362 4.33667 96.4962 4.25 96.3362 4.19C96.1762 4.13 96.0062 4.1 95.8262 4.1C95.6462 4.1 95.4762 4.13 95.3162 4.19C95.1562 4.25 95.0162 4.33667 94.8962 4.45C94.7762 4.56333 94.6795 4.70333 94.6062 4.87C94.5395 5.03 94.5062 5.21333 94.5062 5.42V5.62C94.5062 5.82667 94.5395 6.01333 94.6062 6.18C94.6795 6.34 94.7762 6.47667 94.8962 6.59C95.0162 6.70333 95.1562 6.79 95.3162 6.85C95.4762 6.91 95.6462 6.94 95.8262 6.94ZM100.483 8H99.2228V3.04H100.483V3.78H100.663C100.776 3.5 100.959 3.28333 101.213 3.13C101.466 2.97667 101.763 2.9 102.103 2.9C102.343 2.9 102.566 2.94 102.773 3.02C102.986 3.09333 103.173 3.21 103.333 3.37C103.493 3.53 103.616 3.73333 103.703 3.98C103.796 4.22667 103.843 4.52 103.843 4.86V8H102.583V5.18C102.583 4.82667 102.496 4.55 102.323 4.35C102.156 4.14333 101.913 4.04 101.593 4.04C101.219 4.04 100.939 4.16667 100.753 4.42C100.573 4.66667 100.483 5 100.483 5.42V8ZM110.436 3.04H111.906V1H113.166V3.04H114.956V4.24H113.166V6.5C113.166 6.7 113.256 6.8 113.436 6.8H114.776V8H112.676C112.449 8 112.263 7.92667 112.116 7.78C111.976 7.63333 111.906 7.44667 111.906 7.22V4.24H110.436V3.04ZM117.533 8H116.273V1H117.533V3.84H117.713C117.839 3.54 118.026 3.31 118.273 3.15C118.519 2.98333 118.823 2.9 119.183 2.9C119.429 2.9 119.656 2.94 119.863 3.02C120.069 3.1 120.249 3.22 120.403 3.38C120.556 3.54 120.676 3.74667 120.763 4C120.849 4.24667 120.893 4.54 120.893 4.88V8H119.633V5.18C119.633 4.82667 119.546 4.55 119.373 4.35C119.206 4.14333 118.963 4.04 118.643 4.04C118.269 4.04 117.989 4.16667 117.803 4.42C117.623 4.66667 117.533 5 117.533 5.42V8ZM123.039 5.93C123.046 6.07667 123.079 6.21333 123.139 6.34C123.206 6.46 123.293 6.56667 123.399 6.66C123.513 6.74667 123.639 6.81667 123.779 6.87C123.926 6.91667 124.079 6.94 124.239 6.94C124.553 6.94 124.793 6.88667 124.959 6.78C125.126 6.66667 125.246 6.53333 125.319 6.38L126.399 6.98C126.339 7.10667 126.256 7.24 126.149 7.38C126.043 7.51333 125.903 7.63667 125.729 7.75C125.563 7.86333 125.356 7.95667 125.109 8.03C124.869 8.10333 124.586 8.14 124.259 8.14C123.886 8.14 123.546 8.08 123.239 7.96C122.933 7.84 122.666 7.66667 122.439 7.44C122.219 7.21333 122.046 6.93667 121.919 6.61C121.799 6.28333 121.739 5.91333 121.739 5.5V5.44C121.739 5.06 121.803 4.71333 121.929 4.4C122.063 4.08667 122.243 3.82 122.469 3.6C122.696 3.38 122.959 3.21 123.259 3.09C123.566 2.96333 123.893 2.9 124.239 2.9C124.666 2.9 125.033 2.97667 125.339 3.13C125.646 3.27667 125.899 3.46667 126.099 3.7C126.299 3.92667 126.446 4.18 126.539 4.46C126.633 4.73333 126.679 5 126.679 5.26V5.93H123.039ZM124.229 4.04C123.909 4.04 123.649 4.12333 123.449 4.29C123.249 4.45 123.119 4.63667 123.059 4.85H125.399C125.359 4.61667 125.233 4.42333 125.019 4.27C124.813 4.11667 124.549 4.04 124.229 4.04Z" fill="#495567"/>
<path fill-rule="evenodd" clip-rule="evenodd" d="M13.5501 5.23259C14.5379 4.02638 16.2329 3.10009 17.6831 3C17.9262 4.64899 17.2547 6.26406 16.3672 7.4058C15.4185 8.63236 13.7813 9.5807 12.1968 9.5315C11.9078 7.95207 12.649 6.32683 13.5501 5.23259ZM18.0165 9.53333C19.9466 9.53333 21.9903 10.5773 23.4446 12.3763C18.677 14.9705 19.4494 21.7283 24.2667 23.5378C23.6044 24.9952 23.2865 25.645 22.4325 26.936C21.241 28.7367 19.5631 30.9805 17.4803 30.9963C16.6241 31.0052 16.0624 30.7496 15.4568 30.474C14.7549 30.1545 13.9939 29.8082 12.647 29.8157C11.3076 29.8222 10.5345 30.1643 9.82292 30.4791C9.20166 30.7539 8.62736 31.008 7.7641 30.9998C5.68308 30.9823 4.09213 28.9574 2.90069 27.1567C-0.428589 22.1242 -0.780161 16.2159 1.27423 13.0734C2.73556 10.8418 5.04031 9.53684 7.20478 9.53684C8.35838 9.53684 9.28812 9.86569 10.1741 10.1791C10.9805 10.4643 11.7507 10.7367 12.6204 10.7367C13.4252 10.7367 14.0869 10.488 14.8086 10.2167C15.6745 9.89129 16.6268 9.53333 18.0165 9.53333Z" fill="#495567"/>
</svg>
