<svg width="149" height="36" viewBox="0 0 149 36" fill="none" xmlns="http://www.w3.org/2000/svg">
<path d="M41.2 24.92H47.2V32H44.8V30.44H44.44C44.28 30.96 43.9733 31.4 43.52 31.76C43.0667 32.1067 42.3867 32.28 41.48 32.28C40.84 32.28 40.24 32.16 39.68 31.92C39.12 31.68 38.6333 31.3267 38.22 30.86C37.8067 30.38 37.48 29.7933 37.24 29.1C37 28.3933 36.88 27.5733 36.88 26.64V23.36C36.88 22.4533 37.0067 21.6533 37.26 20.96C37.5267 20.2533 37.8867 19.66 38.34 19.18C38.8067 18.7 39.36 18.34 40 18.1C40.64 17.8467 41.3467 17.72 42.12 17.72C42.92 17.72 43.6333 17.8533 44.26 18.12C44.8867 18.3733 45.42 18.7333 45.86 19.2C46.3 19.6533 46.6333 20.1933 46.86 20.82C47.0867 21.4333 47.2 22.0933 47.2 22.8V23.04H44.56V22.8C44.56 21.96 44.34 21.3267 43.9 20.9C43.4733 20.46 42.8667 20.24 42.08 20.24C41.3333 20.24 40.72 20.4933 40.24 21C39.76 21.4933 39.52 22.3467 39.52 23.56V26.52C39.52 28.68 40.4 29.76 42.16 29.76C42.9467 29.76 43.54 29.5533 43.94 29.14C44.3533 28.7133 44.56 28.1467 44.56 27.44H41.2V24.92ZM58.6332 27.16C58.6332 27.9867 58.4932 28.72 58.2132 29.36C57.9332 29.9867 57.5532 30.52 57.0732 30.96C56.5932 31.3867 56.0399 31.7133 55.4132 31.94C54.7999 32.1667 54.1532 32.28 53.4732 32.28C52.7932 32.28 52.1399 32.1667 51.5132 31.94C50.8999 31.7133 50.3532 31.3867 49.8732 30.96C49.3932 30.52 49.0132 29.9867 48.7332 29.36C48.4532 28.72 48.3132 27.9867 48.3132 27.16V26.92C48.3132 26.1067 48.4532 25.3867 48.7332 24.76C49.0132 24.12 49.3932 23.58 49.8732 23.14C50.3532 22.7 50.8999 22.3667 51.5132 22.14C52.1399 21.9133 52.7932 21.8 53.4732 21.8C54.1532 21.8 54.7999 21.9133 55.4132 22.14C56.0399 22.3667 56.5932 22.7 57.0732 23.14C57.5532 23.58 57.9332 24.12 58.2132 24.76C58.4932 25.3867 58.6332 26.1067 58.6332 26.92V27.16ZM53.4732 29.88C53.8332 29.88 54.1732 29.82 54.4932 29.7C54.8132 29.58 55.0932 29.4067 55.3332 29.18C55.5732 28.9533 55.7599 28.68 55.8932 28.36C56.0399 28.0267 56.1132 27.6533 56.1132 27.24V26.84C56.1132 26.4267 56.0399 26.06 55.8932 25.74C55.7599 25.4067 55.5732 25.1267 55.3332 24.9C55.0932 24.6733 54.8132 24.5 54.4932 24.38C54.1732 24.26 53.8332 24.2 53.4732 24.2C53.1132 24.2 52.7732 24.26 52.4532 24.38C52.1332 24.5 51.8532 24.6733 51.6132 24.9C51.3732 25.1267 51.1799 25.4067 51.0332 25.74C50.8999 26.06 50.8332 26.4267 50.8332 26.84V27.24C50.8332 27.6533 50.8999 28.0267 51.0332 28.36C51.1799 28.68 51.3732 28.9533 51.6132 29.18C51.8532 29.4067 52.1332 29.58 52.4532 29.7C52.7732 29.82 53.1132 29.88 53.4732 29.88ZM69.9865 27.16C69.9865 27.9867 69.8465 28.72 69.5665 29.36C69.2865 29.9867 68.9065 30.52 68.4265 30.96C67.9465 31.3867 67.3931 31.7133 66.7665 31.94C66.1531 32.1667 65.5065 32.28 64.8265 32.28C64.1465 32.28 63.4931 32.1667 62.8665 31.94C62.2531 31.7133 61.7065 31.3867 61.2265 30.96C60.7465 30.52 60.3665 29.9867 60.0865 29.36C59.8065 28.72 59.6665 27.9867 59.6665 27.16V26.92C59.6665 26.1067 59.8065 25.3867 60.0865 24.76C60.3665 24.12 60.7465 23.58 61.2265 23.14C61.7065 22.7 62.2531 22.3667 62.8665 22.14C63.4931 21.9133 64.1465 21.8 64.8265 21.8C65.5065 21.8 66.1531 21.9133 66.7665 22.14C67.3931 22.3667 67.9465 22.7 68.4265 23.14C68.9065 23.58 69.2865 24.12 69.5665 24.76C69.8465 25.3867 69.9865 26.1067 69.9865 26.92V27.16ZM64.8265 29.88C65.1865 29.88 65.5265 29.82 65.8465 29.7C66.1665 29.58 66.4465 29.4067 66.6865 29.18C66.9265 28.9533 67.1131 28.68 67.2465 28.36C67.3931 28.0267 67.4665 27.6533 67.4665 27.24V26.84C67.4665 26.4267 67.3931 26.06 67.2465 25.74C67.1131 25.4067 66.9265 25.1267 66.6865 24.9C66.4465 24.6733 66.1665 24.5 65.8465 24.38C65.5265 24.26 65.1865 24.2 64.8265 24.2C64.4665 24.2 64.1265 24.26 63.8065 24.38C63.4865 24.5 63.2065 24.6733 62.9665 24.9C62.7265 25.1267 62.5331 25.4067 62.3865 25.74C62.2531 26.06 62.1865 26.4267 62.1865 26.84V27.24C62.1865 27.6533 62.2531 28.0267 62.3865 28.36C62.5331 28.68 62.7265 28.9533 62.9665 29.18C63.2065 29.4067 63.4865 29.58 63.8065 29.7C64.1265 29.82 64.4665 29.88 64.8265 29.88ZM78.6997 30.56H78.3397C78.233 30.7867 78.0997 31.0067 77.9397 31.22C77.793 31.42 77.593 31.6 77.3397 31.76C77.0997 31.92 76.8064 32.0467 76.4597 32.14C76.1264 32.2333 75.7197 32.28 75.2397 32.28C74.6264 32.28 74.053 32.1733 73.5197 31.96C72.9997 31.7333 72.5397 31.4067 72.1397 30.98C71.753 30.54 71.4464 30.0067 71.2197 29.38C71.0064 28.7533 70.8997 28.0333 70.8997 27.22V26.86C70.8997 26.06 71.013 25.3467 71.2397 24.72C71.4797 24.0933 71.7997 23.5667 72.1997 23.14C72.613 22.7 73.0864 22.3667 73.6197 22.14C74.1664 21.9133 74.7397 21.8 75.3397 21.8C76.1397 21.8 76.773 21.9533 77.2397 22.26C77.7064 22.5533 78.073 22.9733 78.3397 23.52H78.6997V22.08H81.2197V34.44C81.2197 34.8933 81.073 35.2667 80.7797 35.56C80.4997 35.8533 80.133 36 79.6797 36H72.9997V33.6H78.1597C78.5197 33.6 78.6997 33.4 78.6997 33V30.56ZM76.0597 29.88C76.8464 29.88 77.4797 29.6333 77.9597 29.14C78.453 28.6333 78.6997 27.9733 78.6997 27.16V26.92C78.6997 26.1067 78.453 25.4533 77.9597 24.96C77.4797 24.4533 76.8464 24.2 76.0597 24.2C75.273 24.2 74.633 24.4467 74.1397 24.94C73.6597 25.42 73.4197 26.08 73.4197 26.92V27.16C73.4197 28 73.6597 28.6667 74.1397 29.16C74.633 29.64 75.273 29.88 76.0597 29.88ZM82.9129 29.6H86.3929V20.4H83.0329V18H88.9129V29.6H92.1529V32H82.9129V29.6ZM96.5462 27.86C96.5595 28.1533 96.6262 28.4267 96.7462 28.68C96.8795 28.92 97.0528 29.1333 97.2662 29.32C97.4928 29.4933 97.7462 29.6333 98.0262 29.74C98.3195 29.8333 98.6262 29.88 98.9462 29.88C99.5728 29.88 100.053 29.7733 100.386 29.56C100.72 29.3333 100.96 29.0667 101.106 28.76L103.266 29.96C103.146 30.2133 102.98 30.48 102.766 30.76C102.553 31.0267 102.273 31.2733 101.926 31.5C101.593 31.7267 101.18 31.9133 100.686 32.06C100.206 32.2067 99.6395 32.28 98.9862 32.28C98.2395 32.28 97.5595 32.16 96.9462 31.92C96.3328 31.68 95.7995 31.3333 95.3462 30.88C94.9062 30.4267 94.5595 29.8733 94.3062 29.22C94.0662 28.5667 93.9462 27.8267 93.9462 27V26.88C93.9462 26.12 94.0728 25.4267 94.3262 24.8C94.5928 24.1733 94.9528 23.64 95.4062 23.2C95.8595 22.76 96.3862 22.42 96.9862 22.18C97.5995 21.9267 98.2528 21.8 98.9462 21.8C99.7995 21.8 100.533 21.9533 101.146 22.26C101.76 22.5533 102.266 22.9333 102.666 23.4C103.066 23.8533 103.36 24.36 103.546 24.92C103.733 25.4667 103.826 26 103.826 26.52V27.86H96.5462ZM98.9262 24.08C98.2862 24.08 97.7662 24.2467 97.3662 24.58C96.9662 24.9 96.7062 25.2733 96.5862 25.7H101.266C101.186 25.2333 100.933 24.8467 100.506 24.54C100.093 24.2333 99.5662 24.08 98.9262 24.08ZM108.199 26.72V32H105.559V18H111.039C111.759 18 112.386 18.12 112.919 18.36C113.453 18.5867 113.893 18.8933 114.239 19.28C114.599 19.6533 114.866 20.0867 115.039 20.58C115.226 21.06 115.319 21.5533 115.319 22.06V22.54C115.319 23.06 115.226 23.5733 115.039 24.08C114.866 24.5733 114.599 25.02 114.239 25.42C113.893 25.8067 113.453 26.12 112.919 26.36C112.386 26.6 111.759 26.72 111.039 26.72H108.199ZM108.199 24.2H110.779C111.366 24.2 111.826 24.04 112.159 23.72C112.506 23.4 112.679 22.9867 112.679 22.48V22.24C112.679 21.7333 112.506 21.32 112.159 21C111.826 20.68 111.366 20.52 110.779 20.52H108.199V24.2ZM116.973 29.6H120.453V20.4H117.093V18H122.973V29.6H126.213V32H116.973V29.6ZM134.806 30.56C134.539 31.1867 134.166 31.6333 133.686 31.9C133.206 32.1533 132.646 32.28 132.006 32.28C131.406 32.28 130.839 32.1667 130.306 31.94C129.786 31.7133 129.326 31.38 128.926 30.94C128.526 30.5 128.206 29.9667 127.966 29.34C127.739 28.7133 127.626 28 127.626 27.2V26.88C127.626 26.0933 127.739 25.3867 127.966 24.76C128.193 24.1333 128.499 23.6 128.886 23.16C129.273 22.72 129.719 22.3867 130.226 22.16C130.746 21.92 131.299 21.8 131.886 21.8C132.593 21.8 133.159 21.92 133.586 22.16C134.026 22.4 134.373 22.7733 134.626 23.28H134.986V22.08H137.506V29C137.506 29.4 137.686 29.6 138.046 29.6H138.426V32H136.706C136.253 32 135.879 31.8667 135.586 31.6C135.306 31.3333 135.166 30.9867 135.166 30.56H134.806ZM132.566 29.88C133.299 29.88 133.886 29.64 134.326 29.16C134.766 28.6667 134.986 28 134.986 27.16V26.92C134.986 26.08 134.766 25.42 134.326 24.94C133.886 24.4467 133.299 24.2 132.566 24.2C131.833 24.2 131.246 24.4467 130.806 24.94C130.366 25.42 130.146 26.08 130.146 26.92V27.16C130.146 28 130.366 28.6667 130.806 29.16C131.246 29.64 131.833 29.88 132.566 29.88ZM146.459 22.08H148.979V34.44C148.979 34.8933 148.832 35.2667 148.539 35.56C148.259 35.8533 147.892 36 147.439 36H141.539V33.6H145.919C146.279 33.6 146.459 33.4 146.459 33V30.56H146.099C145.659 31.7067 144.712 32.28 143.259 32.28C142.766 32.28 142.306 32.2 141.879 32.04C141.452 31.88 141.079 31.6333 140.759 31.3C140.439 30.9667 140.186 30.5533 139.999 30.06C139.826 29.5533 139.739 28.96 139.739 28.28V22.08H142.259V27.76C142.259 28.4667 142.426 29.02 142.759 29.42C143.092 29.8067 143.592 30 144.259 30C145.019 30 145.572 29.76 145.919 29.28C146.279 28.7867 146.459 28.12 146.459 27.28V22.08Z" fill="#495567"/>
<path d="M38.6 4.46H41.6V8H40.4V7.22H40.22C40.14 7.48 39.9867 7.7 39.76 7.88C39.5333 8.05333 39.1933 8.14 38.74 8.14C38.42 8.14 38.12 8.08 37.84 7.96C37.56 7.84 37.3167 7.66333 37.11 7.43C36.9033 7.19 36.74 6.89667 36.62 6.55C36.5 6.19667 36.44 5.78667 36.44 5.32V3.68C36.44 3.22667 36.5033 2.82667 36.63 2.48C36.7633 2.12667 36.9433 1.83 37.17 1.59C37.4033 1.35 37.68 1.17 38 1.05C38.32 0.923333 38.6733 0.86 39.06 0.86C39.46 0.86 39.8167 0.926666 40.13 1.06C40.4433 1.18667 40.71 1.36667 40.93 1.6C41.15 1.82667 41.3167 2.09667 41.43 2.41C41.5433 2.71667 41.6 3.04667 41.6 3.4V3.52H40.28V3.4C40.28 2.98 40.17 2.66333 39.95 2.45C39.7367 2.23 39.4333 2.12 39.04 2.12C38.6667 2.12 38.36 2.24667 38.12 2.5C37.88 2.74667 37.76 3.17333 37.76 3.78V5.26C37.76 6.34 38.2 6.88 39.08 6.88C39.4733 6.88 39.77 6.77667 39.97 6.57C40.1767 6.35667 40.28 6.07333 40.28 5.72H38.6V4.46ZM43.5666 5.93C43.5733 6.07667 43.6066 6.21333 43.6666 6.34C43.7333 6.46 43.82 6.56667 43.9266 6.66C44.04 6.74667 44.1666 6.81667 44.3066 6.87C44.4533 6.91667 44.6066 6.94 44.7666 6.94C45.08 6.94 45.32 6.88667 45.4866 6.78C45.6533 6.66667 45.7733 6.53333 45.8466 6.38L46.9266 6.98C46.8666 7.10667 46.7833 7.24 46.6766 7.38C46.57 7.51333 46.43 7.63667 46.2566 7.75C46.09 7.86333 45.8833 7.95667 45.6366 8.03C45.3966 8.10333 45.1133 8.14 44.7866 8.14C44.4133 8.14 44.0733 8.08 43.7666 7.96C43.46 7.84 43.1933 7.66667 42.9666 7.44C42.7466 7.21333 42.5733 6.93667 42.4466 6.61C42.3266 6.28333 42.2666 5.91333 42.2666 5.5V5.44C42.2666 5.06 42.33 4.71333 42.4566 4.4C42.59 4.08667 42.77 3.82 42.9966 3.6C43.2233 3.38 43.4866 3.21 43.7866 3.09C44.0933 2.96333 44.42 2.9 44.7666 2.9C45.1933 2.9 45.56 2.97667 45.8666 3.13C46.1733 3.27667 46.4266 3.46667 46.6266 3.7C46.8266 3.92667 46.9733 4.18 47.0666 4.46C47.16 4.73333 47.2066 5 47.2066 5.26V5.93H43.5666ZM44.7566 4.04C44.4366 4.04 44.1766 4.12333 43.9766 4.29C43.7766 4.45 43.6466 4.63667 43.5866 4.85H45.9266C45.8866 4.61667 45.76 4.42333 45.5466 4.27C45.34 4.11667 45.0766 4.04 44.7566 4.04ZM47.9932 3.04H49.4632V1H50.7232V3.04H52.5132V4.24H50.7232V6.5C50.7232 6.7 50.8132 6.8 50.9932 6.8H52.3332V8H50.2332C50.0066 8 49.8199 7.92667 49.6732 7.78C49.5332 7.63333 49.4632 7.44667 49.4632 7.22V4.24H47.9932V3.04ZM59.5765 6.8H61.2565V4.24H59.6965V3.04H62.5165V6.8H63.9565V8H59.5765V6.8ZM62.8265 1.57C62.8265 1.70333 62.7998 1.83 62.7465 1.95C62.6998 2.06333 62.6331 2.16333 62.5465 2.25C62.4598 2.33 62.3565 2.39667 62.2365 2.45C62.1231 2.49667 62.0031 2.52 61.8765 2.52C61.7431 2.52 61.6198 2.49667 61.5065 2.45C61.3931 2.39667 61.2931 2.33 61.2065 2.25C61.1198 2.16333 61.0498 2.06333 60.9965 1.95C60.9498 1.83 60.9265 1.70333 60.9265 1.57C60.9265 1.43667 60.9498 1.31333 60.9965 1.2C61.0498 1.08 61.1198 0.98 61.2065 0.9C61.2931 0.813333 61.3931 0.746666 61.5065 0.7C61.6198 0.646666 61.7431 0.62 61.8765 0.62C62.0031 0.62 62.1231 0.646666 62.2365 0.7C62.3565 0.746666 62.4598 0.813333 62.5465 0.9C62.6331 0.98 62.6998 1.08 62.7465 1.2C62.7998 1.31333 62.8265 1.43667 62.8265 1.57ZM65.0231 3.04H66.4931V1H67.7531V3.04H69.5431V4.24H67.7531V6.5C67.7531 6.7 67.8431 6.8 68.0231 6.8H69.3631V8H67.2631C67.0364 8 66.8498 7.92667 66.7031 7.78C66.5631 7.63333 66.4931 7.44667 66.4931 7.22V4.24H65.0231V3.04ZM81.3763 5.58C81.3763 5.99333 81.3063 6.36 81.1663 6.68C81.0263 6.99333 80.8363 7.26 80.5963 7.48C80.3563 7.69333 80.0797 7.85667 79.7663 7.97C79.4597 8.08333 79.1363 8.14 78.7963 8.14C78.4563 8.14 78.1297 8.08333 77.8163 7.97C77.5097 7.85667 77.2363 7.69333 76.9963 7.48C76.7563 7.26 76.5663 6.99333 76.4263 6.68C76.2863 6.36 76.2163 5.99333 76.2163 5.58V5.46C76.2163 5.05333 76.2863 4.69333 76.4263 4.38C76.5663 4.06 76.7563 3.79 76.9963 3.57C77.2363 3.35 77.5097 3.18333 77.8163 3.07C78.1297 2.95667 78.4563 2.9 78.7963 2.9C79.1363 2.9 79.4597 2.95667 79.7663 3.07C80.0797 3.18333 80.3563 3.35 80.5963 3.57C80.8363 3.79 81.0263 4.06 81.1663 4.38C81.3063 4.69333 81.3763 5.05333 81.3763 5.46V5.58ZM78.7963 6.94C78.9763 6.94 79.1463 6.91 79.3063 6.85C79.4663 6.79 79.6063 6.70333 79.7263 6.59C79.8463 6.47667 79.9397 6.34 80.0063 6.18C80.0797 6.01333 80.1163 5.82667 80.1163 5.62V5.42C80.1163 5.21333 80.0797 5.03 80.0063 4.87C79.9397 4.70333 79.8463 4.56333 79.7263 4.45C79.6063 4.33667 79.4663 4.25 79.3063 4.19C79.1463 4.13 78.9763 4.1 78.7963 4.1C78.6163 4.1 78.4463 4.13 78.2863 4.19C78.1263 4.25 77.9863 4.33667 77.8663 4.45C77.7463 4.56333 77.6497 4.70333 77.5763 4.87C77.5097 5.03 77.4763 5.21333 77.4763 5.42V5.62C77.4763 5.82667 77.5097 6.01333 77.5763 6.18C77.6497 6.34 77.7463 6.47667 77.8663 6.59C77.9863 6.70333 78.1263 6.79 78.2863 6.85C78.4463 6.91 78.6163 6.94 78.7963 6.94ZM83.4529 8H82.1929V3.04H83.4529V3.78H83.6329C83.7463 3.5 83.9296 3.28333 84.1829 3.13C84.4363 2.97667 84.7329 2.9 85.0729 2.9C85.3129 2.9 85.5363 2.94 85.7429 3.02C85.9563 3.09333 86.1429 3.21 86.3029 3.37C86.4629 3.53 86.5863 3.73333 86.6729 3.98C86.7663 4.22667 86.8129 4.52 86.8129 4.86V8H85.5529V5.18C85.5529 4.82667 85.4663 4.55 85.2929 4.35C85.1263 4.14333 84.8829 4.04 84.5629 4.04C84.1896 4.04 83.9096 4.16667 83.7229 4.42C83.5429 4.66667 83.4529 5 83.4529 5.42V8Z" fill="#495567"/>
<path fill-rule="evenodd" clip-rule="evenodd" d="M1.35225 3.23709C2.077 2.88766 2.90802 2.9252 3.60529 3.34493L17.4772 11.423L13.504 15.4147L1.35225 3.23709ZM0 5.42141C0 5.04978 0.082467 4.68872 0.235771 4.36414L12.3848 16.5391L0.237885 28.7437C0.0829956 28.426 0 28.0702 0 27.697V5.42141ZM13.5056 17.6619L1.37344 29.8517C1.69538 30.0008 2.03794 30.0658 2.37996 30.0658C2.80234 30.0658 3.22367 29.9648 3.60534 29.7354L17.4799 21.6452L13.5056 17.6619ZM22.7456 14.4907C22.7504 14.4933 22.7556 14.4965 22.7604 14.4996C23.4767 14.9342 23.9044 15.6944 23.9044 16.5328C23.9044 17.3712 23.4767 18.1314 22.7604 18.5664C22.7556 18.5691 18.8966 20.8189 18.8966 20.8189L14.6242 16.5375L18.894 12.2477L22.7456 14.4907Z" fill="#495567"/>
</svg>
